<svg width="36" height="36" viewBox="0 0 36 36" fill="none" xmlns="http://www.w3.org/2000/svg">
<rect width="36" height="36" rx="6" fill="#1AA47B"/>
<path fill-rule="evenodd" clip-rule="evenodd" d="M31.8571 16.2857C32.2429 16.3286 33.1429 16.1314 33.6571 15V18.262C33.6572 18.2699 33.6573 18.2778 33.6573 18.2857V25.3429C33.6573 26.4474 32.7619 27.3429 31.6573 27.3429H14.3144C14.3112 27.3429 14.308 27.3428 14.3048 27.3428H11.2857C10.2916 27.3428 9.48566 26.5369 9.48566 25.5428C9.48566 24.5487 10.2916 23.7428 11.2857 23.7428H12.3279C13.3159 23.7356 14.1145 22.9325 14.1145 21.9429C14.1145 20.9488 13.3087 20.1429 12.3145 20.1429H12.3144V20.1428H2.92857C1.86345 20.1428 1 19.2794 1 18.2142C1 17.1491 1.86345 16.2857 2.92857 16.2857H17.5857C17.5903 16.2857 17.595 16.2857 17.5996 16.2857H31.6573C31.6581 16.2857 31.6589 16.2857 31.6597 16.2857H31.8571Z" fill="white"/>
<circle cx="5.89995" cy="25.5286" r="1.7" fill="white"/>
<rect x="6" y="9" width="28" height="4" rx="2" fill="white"/>
</svg>
